<?xml version="1.0" encoding="UTF-8" standalone="no"?>
<svg
   version="1.1"
   id="svg1182"
   viewBox="0 0 75.000473 45.760502"
   xmlns="http://www.w3.org/2000/svg"
   xmlns:svg="http://www.w3.org/2000/svg">
  <defs
     id="defs1186" />
  <path
     id="path1152"
     style="fill:currentColor;fill-rule:evenodd;stroke-width:0.111258"
     d="m 33.329687,0 c -5.667099,8.2673185 -7.786611,13.305443 -10.154369,23.207263 -1.013829,4.677233 -1.380272,9.756731 -1.462544,14.645166 -0.401538,2.150077 -0.617005,4.290635 -0.613929,6.6838 -0.01608,-0.05396 -0.04978,-0.156395 -0.0634,-0.20372 -0.760192,-3.025102 -1.290147,-5.927369 -1.742211,-9.008813 -0.744259,-5.51837 -1.725649,-13.433447 -1.168536,-19.002648 -1.036112,6.32135 -1.044265,12.812237 -0.636584,19.18616 0.11597,1.327495 0.266048,2.746937 0.461222,4.190595 -2.065928,-4.838102 -4.536163,-8.917336 -8.240381,-13.426759 -0.00482,0.02769 -1.0969795,-1.303095 -1.2588246,-1.509156 0.3849176,0.53059 0.7722494,1.059543 1.1595723,1.588362 l -0.00864,-0.01091 c 3.7236653,6.053943 5.9489453,12.02168 7.9577803,18.43093 -0.0242,-0.04272 -0.05117,-0.09333 -0.07497,-0.134944 C 14.776773,40.573147 11.125124,37.915829 7.4080634,34.816027 4.893158,32.862517 2.3200054,31.053571 0,28.865619 c 2.1898114,2.273544 4.4615922,4.483368 6.6818437,6.729921 4.9564523,4.898493 6.2249383,6.294821 8.7782013,10.164962 h 10.628628 c 0.04505,-0.316628 0.0781,-0.626844 0.127936,-0.948193 0.213538,-1.323291 0.456251,-2.627435 0.723123,-3.94108 0.686419,-3.284111 1.487121,-6.4802 2.359238,-9.718082 2.022256,-7.175702 4.562187,-16.200081 7.286158,-23.1670081 0.395767,-0.9166093 0.801215,-1.8212402 1.225741,-2.7249549 -0.446733,0.8908421 -0.890752,1.7832331 -1.334772,2.6754103 -3.531905,6.7108667 -6.661667,15.4859137 -9.000663,22.6665087 -1.40883,4.476581 -2.707516,9.014385 -3.355507,13.671548 -0.113831,-1.064935 -0.200159,-1.886931 -0.214804,-2.146717 -0.01236,-0.399962 -0.02274,-0.799776 -0.03145,-1.199828 -0.01677,-1.160075 -0.01709,-2.337182 -0.01304,-3.515225 0.19766,-1.231405 0.443529,-2.471955 0.741541,-3.781689 1.829,-7.204785 4.367815,-14.378855 8.413786,-20.660274 -3.830821,5.36681 -6.659339,10.594849 -8.908581,16.569584 0.133097,-2.028111 0.323377,-4.043657 0.598446,-6.019022 C 26.490002,13.715442 27.948768,8.3882675 33.329689,0 Z m 9.308361,10.881077 c -5.173901,7.475712 -9.577216,16.729051 -12.018811,26.017291 1.506887,-7.483545 3.695308,-15.180235 6.87937,-21.912256 -5.043171,9.518548 -9.692185,19.896735 -10.417901,30.77439 h 3.961616 c 0.314883,-1.750992 0.592261,-3.391414 0.763052,-4.32831 2.158183,-10.076407 5.336924,-21.691547 10.832674,-30.551115 z m 10.162029,2.488968 c -1.001065,1.142385 -1.996354,2.290914 -2.990932,3.438952 0,0 -0.02222,0.03137 -0.02298,0.03145 -2.66455,3.203003 -7.098256,12.052772 -9.033911,15.901384 -1.584901,3.186559 -3.456705,6.961808 -4.510028,10.361347 -0.07402,0.23253 -0.144012,0.464283 -0.209097,0.699491 -0.174502,0.654844 -0.326644,1.301972 -0.436939,1.957829 h 4.093463 c 0.09389,-0.254146 0.285683,-0.775512 0.337522,-0.907449 1.371065,-3.255005 2.85703,-6.392252 4.41811,-9.55804 2.345895,-4.698166 6.708815,-13.903418 9.81489,-18.049079 -3.97689,4.496544 -8.446125,12.012616 -11.423786,17.183026 -1.084181,1.948423 -2.403999,4.36343 -3.601438,6.851501 0.211465,-0.509733 0.417884,-1.021438 0.632183,-1.530506 0.872517,-2.059628 1.767189,-4.106775 2.669378,-6.153476 2.487094,-5.517823 4.981455,-11.08875 7.504874,-16.589141 -0.0026,0.0034 0.0052,-0.0073 0.008,-0.01059 0.889241,-1.247379 1.780648,-2.440189 2.750706,-3.6267 z m 5.959698,1.886445 c -1.51848,1.799195 -3.026169,3.60891 -4.531052,5.419433 -3.035974,3.5465 -6.60173,10.226248 -8.746259,14.405429 -1.420341,2.827829 -2.999764,6.078132 -3.855191,9.132185 -0.06111,0.214859 -0.118338,0.428641 -0.170473,0.645872 -0.07,0.305396 -0.132075,0.604131 -0.188563,0.901093 h 2.007046 c 0.09988,-0.2841 0.19511,-0.56716 0.300039,-0.853504 0.524379,-1.397555 1.073401,-2.771744 1.647359,-4.149852 0.675624,-1.605987 1.376616,-3.191688 2.096521,-4.778124 2.301047,-4.944669 4.785278,-10.138631 7.365527,-14.954494 1.314712,-1.991829 2.600435,-3.887357 4.075046,-5.768038 z m 5.662431,2.075496 c -2.179654,2.187175 -3.919055,4.119008 -5.839424,6.574279 -2.924613,3.533919 -6.559457,9.958369 -8.823833,14.003205 -1.307786,2.371867 -2.851969,5.200258 -3.883876,7.851032 h 2.370808 c 0.385263,-0.830027 0.761333,-1.664244 1.159085,-2.491248 0.710792,-1.467859 1.437429,-2.924268 2.173933,-4.379321 2.450478,-4.744525 5.348107,-9.773411 7.595161,-14.559604 1.726054,-2.739994 3.032912,-4.620405 5.248146,-6.998343 z m -19.699698,1.407622 c -4.658578,7.501808 -10.075532,17.839689 -11.904403,26.435974 -0.03041,0.222841 -0.04575,0.378873 -0.07236,0.58492 h 1.931915 c 0.584571,-1.70258 1.131607,-3.436548 1.409253,-4.326518 2.152884,-6.641485 5.299706,-16.576316 8.635595,-22.694376 z m 23.262022,6.117947 c -0.526149,0.477573 -1.051609,0.955685 -1.576302,1.434838 -2.79828,2.288031 -7.772271,8.970176 -9.976724,11.936836 -1.716253,2.329565 -3.618725,4.952562 -5.007594,7.531273 h 2.516834 c 0.230369,-0.374252 0.458952,-0.749586 0.690855,-1.123066 1.108963,-1.7775 2.237562,-3.540561 3.36822,-5.30421 2.516855,-3.845296 5.801442,-9.358984 8.507824,-12.943046 0.482391,-0.527063 0.96667,-1.032277 1.476887,-1.532625 z m 7.015944,0.411188 c -2.797457,1.894778 -8.795129,8.950877 -10.998258,11.581059 -1.971801,2.390844 -4.129481,5.074678 -5.640265,7.786168 -0.20689,0.371814 -0.394921,0.740029 -0.567645,1.124532 h 2.387595 c 0.464666,-0.730314 0.934617,-1.454687 1.412185,-2.176704 1.258728,-1.887623 2.555685,-3.739058 3.864157,-5.592025 1.771937,-2.450768 7.499091,-10.818762 9.542231,-12.72303 z" />
</svg>
