<?xml version="1.0" encoding="UTF-8" standalone="no"?>
<svg
   viewBox="0 0 508 118"
   version="1.1"
   id="svg7452"
   xmlns="http://www.w3.org/2000/svg"
   xmlns:svg="http://www.w3.org/2000/svg">
  <defs
     id="defs7456" />
  <path
     id="path7450"
     style="fill:currentColor;stroke-width:.264583"
     d="M 352.534 75.372 C 352.534 75.372 306.49722 76.37933 284.27228 81.692312 C 265.88815 86.087055 249.66662 97.333433 231.72931 103.14153 C 231.91786 103.8134 232.10485 104.52774 232.29181 105.29778 C 238.04057 128.97457 220.39171 172.10161 225.27814 149.54973 C 229.88066 128.30837 221.16608 108.25046 220.1258 105.9638 C 217.07375 106.49239 213.99194 106.84573 210.89923 107.12786 C 220.57577 141.25942 215.29821 186.93805 213.01056 157.4345 C 211.4086 136.77402 202.28678 119.01717 195.09064 107.91692 C 193.54889 107.95754 192.00773 107.9995 190.46564 108.03802 C 211.04825 141.40141 202.76493 205.0076 199.42658 171.4677 C 195.98107 136.85114 165.45505 110.31023 164.93048 109.85637 C 162.36411 110.24603 159.80313 110.66347 157.27228 111.26848 C 136.79134 116.16448 119.01394 129.62737 98.534 134.52434 C 76.309066 139.83734 52.497215 135.53166 30.272281 140.84466 C 9.7913431 145.73963 -7.9860615 159.20352 -28.466 164.10052 C -50.690934 169.41249 -74.502785 165.10783 -96.727719 170.42083 C -117.20866 175.3178 -155.466 193.67473 -155.466 193.67473 L 352.534 193.67473 L 352.534 75.372 z "
     transform="translate(155.466 -75.372)" />
</svg>
