<?xml version="1.0" encoding="UTF-8" standalone="no"?>
<svg
   viewBox="0 0 508 118"
   version="1.1"
   id="svg20"
   xmlns="http://www.w3.org/2000/svg"
   xmlns:svg="http://www.w3.org/2000/svg">
  <defs
     id="defs24" />
  <path
     d="M-155.466 75.372h508s-38.257 18.358-58.737 23.255c-22.226 5.313-46.038 1.008-68.263 6.32-20.48 4.897-38.257 18.36-58.737 23.255-22.226 5.313-46.038 1.008-68.263 6.322-20.48 4.896-38.257 18.358-58.737 23.254-22.226 5.313-46.038 1.008-68.263 6.321-20.48 4.896-38.257 18.359-58.737 23.255-22.226 5.313-68.263 6.321-68.263 6.321z"
     style="fill:currentColor;stroke-width:.264583"
     transform="translate(155.466 -75.372)"
     id="path18" />
  <path
     d="m 442.36922,35.99951 c 0,0 0.39053,-15.916433 -11.86535,-15.261808 -2.8289,12.313788 11.86535,15.261808 11.86535,15.261808 z m -22.44229,6.316817 c 0,0 -4.8113,-15.17788 7.14137,-17.965065 6.14882,11.037394 -7.14151,17.964074 -7.14151,17.964074 z"
     style="fill:currentColor"
     id="path253" />
  <path
     d="m 411.8029,43.444672 c 0,0 8.54001,-13.437026 -2.2992,-19.194353 -8.7721,9.092969 2.2992,19.194353 2.2992,19.194353 z m -22.48668,-6.156946 c 0,0 3.70196,-15.485873 15.38076,-11.712177 -0.42135,12.627528 -15.38037,11.711256 -15.38037,11.711256 z"
     style="fill:currentColor"
     id="path459" />
  <path
     d="m 477.67223,24.679742 c 0,0 -4.35992,-15.3126235 -15.86679,-11.043296 0.96059,12.597988 15.86679,11.043296 15.86679,11.043296 z M 458.12337,37.3841 c 0,0 -9.10685,-13.060702 1.4764,-19.275969 9.15269,8.709784 -1.47683,19.275064 -1.47683,19.275064 z"
     style="fill:currentColor"
     id="path479" />
</svg>
