<svg xmlns="http://www.w3.org/2000/svg" width="200" height="68.001" fill="none" style="-webkit-print-color-adjust:exact" viewBox="-0.545 -0.5 200 68.001"><path d="M17.001 25.968c.035-1.012 1.068-2.214 3.092-1.924.802.115 1.343.752.432 1.123-1.003.408-1.326.938-1.915 1.469-.689.621-1.648.478-1.609-.668zm30.888.096c-.36-.744-1.643-1.438-3.295-.835-.655.24-.915.816-.008.916.998.111 1.45.442 2.131.723.797.328 1.579.039 1.172-.804zM8.197 63.18c-1.473-5.704 5.578-11.79 12-8.007 1.18.696 2.127 1.399 2.879 2.385-.343-2.082-2.197-3.152-2.465-7.162-.206-3.075.64-8.03 4.619-10.974l-2.648-3.794s-2.184.791-3.876-1.88c-2.964-4.678 4.12-11.195 8.07-5.573 1.904 2.709 0 5.439 0 5.439l1.61 4.18c1.393-.471 3.019-.755 4.912-.79 1.85-.034 3.426.152 4.77.513l1.169-3.292s-1.868-1.501-.659-4.478c2.118-5.216 11.377-2.531 9.05 4.082-1.122 3.186-4.401 3.005-4.401 3.005l-1.586 2.394c3.462 2.654 4.105 7.214 4.344 11.076.365 5.928-5.954 12.31-2.556 18.803 2.065 3.946 2.128 6.889-1.278 6.604-10.423-.872-21.271 1.451-35.322-.55-1.874-.267-3.973 1.321-5.659.459-.628-.321-1.406-1.173-1.102-1.811 2.163-4.536 6.287-5.327 10.073-6.713.131-.048.264-.09.398-.128-1.059-.962-1.939-2.229-2.342-3.788ZM23.5 28a2.5 2.5 0 0 0 0 5 2.5 2.5 0 0 0 0-5Zm20 0a2.5 2.5 0 0 0 0 5 2.5 2.5 0 0 0 0-5ZM28.179 44.013c-.147.038-.218.142-.157.233.586.879 2.487 1.564 4.649 1.722 2.162.158 4.631-.244 6.274-1.643.045-.038.063-.086.051-.133-.012-.046-.053-.088-.115-.116-.129-.058-.31-.04-.403.04-1.514 1.289-3.738 1.644-5.739 1.498-2-.146-3.732-.827-4.184-1.504-.06-.091-.229-.134-.376-.097z" style="fill:currentColor;fill-opacity:1" transform="translate(-.545 -8.5)"/><path d="M17.001 25.968c.035-1.012 1.068-2.214 3.092-1.924.802.115 1.343.752.432 1.123-1.003.408-1.326.938-1.915 1.469-.689.621-1.648.478-1.609-.668zm30.888.096c-.36-.744-1.643-1.438-3.295-.835-.655.24-.915.816-.008.916.998.111 1.45.442 2.131.723.797.328 1.579.039 1.172-.804zM8.197 63.18c-1.473-5.704 5.578-11.79 12-8.007 1.18.696 2.127 1.399 2.879 2.385-.343-2.082-2.197-3.152-2.465-7.162-.206-3.075.64-8.03 4.619-10.974l-2.648-3.794s-2.184.791-3.876-1.88c-2.964-4.678 4.12-11.195 8.07-5.573 1.904 2.709 0 5.439 0 5.439l1.61 4.18c1.393-.471 3.019-.755 4.912-.79 1.85-.034 3.426.152 4.77.513l1.169-3.292s-1.868-1.501-.659-4.478c2.118-5.216 11.377-2.531 9.05 4.082-1.122 3.186-4.401 3.005-4.401 3.005l-1.586 2.394c3.462 2.654 4.105 7.214 4.344 11.076.365 5.928-5.954 12.31-2.556 18.803 2.065 3.946 2.128 6.889-1.278 6.604-10.423-.872-21.271 1.451-35.322-.55-1.874-.267-3.973 1.321-5.659.459-.628-.321-1.406-1.173-1.102-1.811 2.163-4.536 6.287-5.327 10.073-6.713.131-.048.264-.09.398-.128-1.059-.962-1.939-2.229-2.342-3.788ZM23.5 28a2.5 2.5 0 0 0 0 5 2.5 2.5 0 0 0 0-5Zm20 0a2.5 2.5 0 0 0 0 5 2.5 2.5 0 0 0 0-5ZM28.179 44.013c-.147.038-.218.142-.157.233.586.879 2.487 1.564 4.649 1.722 2.162.158 4.631-.244 6.274-1.643.045-.038.063-.086.051-.133-.012-.046-.053-.088-.115-.116-.129-.058-.31-.04-.403.04-1.514 1.289-3.738 1.644-5.739 1.498-2-.146-3.732-.827-4.184-1.504-.06-.091-.229-.134-.376-.097z" class="stroke-shape" style="fill:none;stroke-width:1.09051" transform="translate(-.545 -8.5)"/><g style="display:inline;fill:#000"><path d="M65.001 10.093c-.056-2.499 1.657-2.033 2.355-1.509.44.834.348 2.168.681 3.648.461 2.054 1.354 4.389 2.158 6.063.768-.821 1.215-3.492 1.742-5.709-1.014-1.571-2.615-3.408-2.194-4.33.733.016 1.532.365 2.774 2.887l.774-2.231c.404-.545.694-.549.839.131-1.275 2.239-1.396 7.054-2.105 11.183 0 0 2.205 5.79 4.557 10.519 2.352 4.729 2.096 6.613 2.096 6.613.998-3.198 1.465-5.541 2.656-7.364 1.291-1.975 3.326-3.322 4.916-4.02 1.745-.765 4.083-1.353 5.688-.284 1.099.733 1.481 2.154 2.301 3.82.778 1.582 2.161 1.807 2.858 4.517l6.323-14.353c-.956-3.347-1.081-6.871-2.323-10.205-.347-.776.415-.999.774-.36 1.491 2.945 1.965 6.15 2.839 9.252 0 0 1.555-2.764 2.029-4.223.473-1.458.809-4.439.809-4.439.461-2.269 2.233-2.055 2.452-.59-.397 5.989-5.225 13.822-8 20.801l3.226-2.329c1.587-.871 1.192.17.516.918l-4.758 5.353c-.469 1.201-2.171 10.096-2.177 10.987-.006.892-.7 1.723-1.258 2.067-.559.344-1.58.835-2.258.722-.678-.113-1.083-.087-1.42-1.05-.336-.963 1.097-4.2 1.097-4.2s-1.172-.985-1.412-2.093.703-4.206.703-4.206c-.034-1.282.13-2.589-.269-3.847-.779-2.456-2.71-4.539-5.473-4.586-1.609-.027-2.539.626-3.599 2.706-1.188 2.331-2.46 2.016-3.337 4.447-.475 1.319.511 2.855.091 4.461-.678 2.592-.756 5.652-.703 6.859.052 1.206-.305 1.458-1.162 1.771-.856.314-2.344-.035-3.29-1.181-.946-1.145-.58-5.315-.58-5.315-1.465-3.913-1.056-6.032-2.258-8.793l-4.516-4.331c-.915-.966-.002-1.422.58-1.05l3.028 2.226s-2.764-5.795-3.955-8.655c-1.19-2.859-2.556-6.048-3.073-7.844-.517-1.795-.742-2.854-.742-2.854z" style="fill:currentColor;fill-opacity:1;stroke:none;stroke-linejoin:miter" transform="translate(-.545 -8.5)"/><path d="M65.001 10.093c-.056-2.499 1.657-2.033 2.355-1.509.44.834.348 2.168.681 3.648.461 2.054 1.354 4.389 2.158 6.063.768-.821 1.215-3.492 1.742-5.709-1.014-1.571-2.615-3.408-2.194-4.33.733.016 1.532.365 2.774 2.887l.774-2.231c.404-.545.694-.549.839.131-1.275 2.239-1.396 7.054-2.105 11.183 0 0 2.205 5.79 4.557 10.519 2.352 4.729 2.096 6.613 2.096 6.613.998-3.198 1.465-5.541 2.656-7.364 1.291-1.975 3.326-3.322 4.916-4.02 1.745-.765 4.083-1.353 5.688-.284 1.099.733 1.481 2.154 2.301 3.82.778 1.582 2.161 1.807 2.858 4.517l6.323-14.353c-.956-3.347-1.081-6.871-2.323-10.205-.347-.776.415-.999.774-.36 1.491 2.945 1.965 6.15 2.839 9.252 0 0 1.555-2.764 2.029-4.223.473-1.458.809-4.439.809-4.439.461-2.269 2.233-2.055 2.452-.59-.397 5.989-5.225 13.822-8 20.801l3.226-2.329c1.587-.871 1.192.17.516.918l-4.758 5.353c-.469 1.201-2.171 10.096-2.177 10.987-.006.892-.7 1.723-1.258 2.067-.559.344-1.58.835-2.258.722-.678-.113-1.083-.087-1.42-1.05-.336-.963 1.097-4.2 1.097-4.2s-1.172-.985-1.412-2.093.703-4.206.703-4.206c-.034-1.282.13-2.589-.269-3.847-.779-2.456-2.71-4.539-5.473-4.586-1.609-.027-2.539.626-3.599 2.706-1.188 2.331-2.46 2.016-3.337 4.447-.475 1.319.511 2.855.091 4.461-.678 2.592-.756 5.652-.703 6.859.052 1.206-.305 1.458-1.162 1.771-.856.314-2.344-.035-3.29-1.181-.946-1.145-.58-5.315-.58-5.315-1.465-3.913-1.056-6.032-2.258-8.793l-4.516-4.331c-.915-.966-.002-1.422.58-1.05l3.028 2.226s-2.764-5.795-3.955-8.655c-1.19-2.859-2.556-6.048-3.073-7.844-.517-1.795-.742-2.854-.742-2.854z" class="stroke-shape" style="fill:none;stroke:none;stroke-width:1;stroke-linejoin:miter;stroke-opacity:1" transform="translate(-.545 -8.5)"/><path d="M111.836 32.13c-.176 1.491-1.889.409-1.266-.6 0 0 .766-2.289 1.338-2.78.572-.492 2.489-1.841 4.206-2.469 2.597-.552 4.069-.278 4.564.712 2.004 1.382 2.906 3.544 3.322 6.049l-.072 5.382-.024 7.829c-.033.693-.566.7-1.047.734-.595.043-1.174-.011-1.39-.356-.371-1.033-1.05-2.804.55-6.183 0 0-.61-3.148-.55-3.269.321-.657-.418-1.16-.598-.868l-3.178 1.913c-1.905.173-3.11 1.433-4.66 2.158 0 0-1.211 2.668-1.123 2.98.088.311.072 1.505-.072 2.246-.055.274.062 1.085-.148 1.142-1.497.409-2.853.124-2.672-.341 0 0 .13-2.314.287-3.047.157-.734.693-1.557.693-1.557s.753-2.344 1.301-3.075c.548-.73 1.079-.935 1.806-1.373.727-.439 1.514-.74 2.882-1.393 1.367-.653 5.004-2.877 5.004-2.877-.202-.86-.255-1.688-.549-2.662-.673-.778-1.201-1.56-1.492-2.278-1.185-.296-1.767-.053-2.834.202-.572.555-1.599.827-2.533 1.157-1.083.875-1.234 1.749-1.745 2.624z" style="fill:currentColor;fill-opacity:1;stroke:none;stroke-linejoin:miter" transform="translate(-.545 -8.5)"/><path d="M111.836 32.13c-.176 1.491-1.889.409-1.266-.6 0 0 .766-2.289 1.338-2.78.572-.492 2.489-1.841 4.206-2.469 2.597-.552 4.069-.278 4.564.712 2.004 1.382 2.906 3.544 3.322 6.049l-.072 5.382-.024 7.829c-.033.693-.566.7-1.047.734-.595.043-1.174-.011-1.39-.356-.371-1.033-1.05-2.804.55-6.183 0 0-.61-3.148-.55-3.269.321-.657-.418-1.16-.598-.868l-3.178 1.913c-1.905.173-3.11 1.433-4.66 2.158 0 0-1.211 2.668-1.123 2.98.088.311.072 1.505-.072 2.246-.055.274.062 1.085-.148 1.142-1.497.409-2.853.124-2.672-.341 0 0 .13-2.314.287-3.047.157-.734.693-1.557.693-1.557s.753-2.344 1.301-3.075c.548-.73 1.079-.935 1.806-1.373.727-.439 1.514-.74 2.882-1.393 1.367-.653 5.004-2.877 5.004-2.877-.202-.86-.255-1.688-.549-2.662-.673-.778-1.201-1.56-1.492-2.278-1.185-.296-1.767-.053-2.834.202-.572.555-1.599.827-2.533 1.157-1.083.875-1.234 1.749-1.745 2.624z" class="stroke-shape" style="fill:none;stroke:none;stroke-width:1;stroke-linejoin:miter;stroke-opacity:1" transform="translate(-.545 -8.5)"/><path d="M128.537 8.611c-.028-.626 1.275-.965 1.36-.046l.053 3.098.372 5.162.212 5.599s1.147-2.343 1.519-3.212c.372-.87.818-1.928.818-1.928.513-.986 1.377-.306 1.062.597 0 0-1.798 4.365-2.379 6.494-.581 2.128-.761 6.313-.761 6.313.388 2.456.159 4.976.038 7.431 0 0-.133 2.841-.127 4.176.006 1.335.127 3.809.127 3.809.06.554.278.92-.828.895l-1.359-.069c-.696.007-.678-1.017-.616-1.744.382-3.943.579-8.327.679-12.941 0 0-.069-6.004-.127-8.031a193.77 193.77 0 0 0-.17-4.13l.085-7.297s-.098-1.735-.085-2.432c.013-.697.127-1.744.127-1.744z" style="fill:currentColor;fill-opacity:1;stroke:none;stroke-linejoin:miter" transform="translate(-.545 -8.5)"/><path d="M128.537 8.611c-.028-.626 1.275-.965 1.36-.046l.053 3.098.372 5.162.212 5.599s1.147-2.343 1.519-3.212c.372-.87.818-1.928.818-1.928.513-.986 1.377-.306 1.062.597 0 0-1.798 4.365-2.379 6.494-.581 2.128-.761 6.313-.761 6.313.388 2.456.159 4.976.038 7.431 0 0-.133 2.841-.127 4.176.006 1.335.127 3.809.127 3.809.06.554.278.92-.828.895l-1.359-.069c-.696.007-.678-1.017-.616-1.744.382-3.943.579-8.327.679-12.941 0 0-.069-6.004-.127-8.031a193.77 193.77 0 0 0-.17-4.13l.085-7.297s-.098-1.735-.085-2.432c.013-.697.127-1.744.127-1.744z" class="stroke-shape" style="fill:none;stroke:none;stroke-width:1;stroke-linejoin:miter;stroke-opacity:1" transform="translate(-.545 -8.5)"/><path d="M146.964 12.829c-.231-.832-.313-1.581.41-1.877l.192-1.266c-.027-.869 1.025-.943 1.157-.046.057 2.548.474 3.611.723 5.835.481-.601 1.071-1.551 1.373-2.024.302-.473.603-1.278.603-1.278.462-.739.562-.363.578.272 0 0-.217 1.256-.578 2.204-.362.949-1.735 3.404-1.735 3.404-.508.754-.441 1.508-.386 2.261 0 0 .381 4.167.434 6.152.053 1.984-.096 5.744-.096 5.744s.076 1.688.096 2.895c.02 1.206.032 2.879 0 4.342-.032 1.462-.193 4.432-.193 4.432l.097 1.99c-.008.492.234 1.183-.771.973l-2.265.022c-.786.037-.981-.203-.482-.769.429-.141.598-.492.578-.995l-.53-2.804s.413-2.341.723-3.777c.309-1.435-.386-4.726-.386-4.726l-.289-2.759c.198-.854-.933-1.352-1.542-1.99-1.201-.285-2.399-.674-3.663.678-.65 1.509-.706 2.669-.867 3.89-.298 1.142-.243 2.618-.076 4.908.063.863-.043 1.842.124 2.962l.193 3.166.675 1.04c.569.448 1.512.92 1.253 1.312 0 0-1.181-.051-1.687-.09s-1.349-.136-1.349-.136c-1.658.287-2.276-.138-2.265-.995l.192-3.89-.144-2.895c-.016-1.418-.032-2.909-.048-4.568-.058-1.396.074-2.992.53-4.93l1.301-2.307c.878-.424.864-1.183 2.65-1.266l2.844.045c1.041.168 1.866.481 2.457.95-.129-1.543-.389-2.911-.096-5.02l.096-5.428c.419-.916.239-2.324.169-3.641z" style="fill:currentColor;fill-opacity:1;stroke:none;stroke-linejoin:miter" transform="translate(-.545 -8.5)"/><path d="M146.964 12.829c-.231-.832-.313-1.581.41-1.877l.192-1.266c-.027-.869 1.025-.943 1.157-.046.057 2.548.474 3.611.723 5.835.481-.601 1.071-1.551 1.373-2.024.302-.473.603-1.278.603-1.278.462-.739.562-.363.578.272 0 0-.217 1.256-.578 2.204-.362.949-1.735 3.404-1.735 3.404-.508.754-.441 1.508-.386 2.261 0 0 .381 4.167.434 6.152.053 1.984-.096 5.744-.096 5.744s.076 1.688.096 2.895c.02 1.206.032 2.879 0 4.342-.032 1.462-.193 4.432-.193 4.432l.097 1.99c-.008.492.234 1.183-.771.973l-2.265.022c-.786.037-.981-.203-.482-.769.429-.141.598-.492.578-.995l-.53-2.804s.413-2.341.723-3.777c.309-1.435-.386-4.726-.386-4.726l-.289-2.759c.198-.854-.933-1.352-1.542-1.99-1.201-.285-2.399-.674-3.663.678-.65 1.509-.706 2.669-.867 3.89-.298 1.142-.243 2.618-.076 4.908.063.863-.043 1.842.124 2.962l.193 3.166.675 1.04c.569.448 1.512.92 1.253 1.312 0 0-1.181-.051-1.687-.09s-1.349-.136-1.349-.136c-1.658.287-2.276-.138-2.265-.995l.192-3.89-.144-2.895c-.016-1.418-.032-2.909-.048-4.568-.058-1.396.074-2.992.53-4.93l1.301-2.307c.878-.424.864-1.183 2.65-1.266l2.844.045c1.041.168 1.866.481 2.457.95-.129-1.543-.389-2.911-.096-5.02l.096-5.428c.419-.916.239-2.324.169-3.641z" class="stroke-shape" style="fill:none;stroke:none;stroke-width:1;stroke-linejoin:miter;stroke-opacity:1" transform="translate(-.545 -8.5)"/><path d="M122.487 75.311c-.193-1.178-.693-2.104-1.193-3.03 0 0-.874-2.431-1.107-3.912-.232-1.482-.182-4.902-.182-4.902s-.068-2.769.449-4.209c.517-1.441 2.606-4.146 2.606-4.146 1.156-1.262 2.8-1.195 4.487-1.01 1.542.155 2.906.541 3.82 1.515.726.945 1.438 1.896 1.811 3.01l.289 1.305c.772-.292.601.483.143.643-1.505 1.139-3.024 2.425-4.487 3.076-2.754 1.148-2.974 2.143-3.676 3.167-.309.713-1.141.531-1.146-.091.632-1.424 2.883-5.13 4.165-5.315 1.282-.184 2.148-1.157 1.946-2.214.286-.967-.371-1.622-1.385-2.158-1.36-.669-2.225-.498-3.007-.184-1.706.329-1.984 1.745-2.435 3.03 0 0-.919 3.155-.907 4.683.012 1.528.907 4.315.907 4.315l.955 3.581c.262.578.298 1.265 1.146 1.561l.668 1.194c.081.336.427.77-.382.78l-2.387-.092c-1.22.261-.909-.303-1.098-.597z" style="fill:currentColor;fill-opacity:1;stroke:none;stroke-linejoin:miter" transform="translate(-.545 -8.5)"/><path d="M122.487 75.311c-.193-1.178-.693-2.104-1.193-3.03 0 0-.874-2.431-1.107-3.912-.232-1.482-.182-4.902-.182-4.902s-.068-2.769.449-4.209c.517-1.441 2.606-4.146 2.606-4.146 1.156-1.262 2.8-1.195 4.487-1.01 1.542.155 2.906.541 3.82 1.515.726.945 1.438 1.896 1.811 3.01l.289 1.305c.772-.292.601.483.143.643-1.505 1.139-3.024 2.425-4.487 3.076-2.754 1.148-2.974 2.143-3.676 3.167-.309.713-1.141.531-1.146-.091.632-1.424 2.883-5.13 4.165-5.315 1.282-.184 2.148-1.157 1.946-2.214.286-.967-.371-1.622-1.385-2.158-1.36-.669-2.225-.498-3.007-.184-1.706.329-1.984 1.745-2.435 3.03 0 0-.919 3.155-.907 4.683.012 1.528.907 4.315.907 4.315l.955 3.581c.262.578.298 1.265 1.146 1.561l.668 1.194c.081.336.427.77-.382.78l-2.387-.092c-1.22.261-.909-.303-1.098-.597z" class="stroke-shape" style="fill:none;stroke:none;stroke-width:1;stroke-linejoin:miter;stroke-opacity:1" transform="translate(-.545 -8.5)"/><path d="M172.487 75.311c-.193-1.178-.693-2.104-1.194-3.03 0 0-.873-2.431-1.106-3.912-.232-1.482-.182-4.902-.182-4.902s-.068-2.769.449-4.209c.517-1.441 2.606-4.146 2.606-4.146 1.156-1.262 2.8-1.195 4.487-1.01 1.542.155 2.906.541 3.82 1.515.726.945 1.438 1.896 1.811 3.01l.289 1.305c.772-.292.601.483.143.643-1.505 1.139-3.024 2.425-4.487 3.076-2.754 1.148-2.974 2.143-3.676 3.167-.309.713-1.141.531-1.146-.091.632-1.424 2.883-5.13 4.165-5.315 1.282-.184 2.148-1.157 1.946-2.214.286-.967-.371-1.622-1.385-2.158-1.36-.669-2.225-.498-3.007-.184-1.706.329-1.984 1.745-2.435 3.03 0 0-.919 3.155-.907 4.683.012 1.528.907 4.315.907 4.315l.955 3.581c.262.578.298 1.265 1.146 1.561l.668 1.194c.081.336.427.77-.382.78l-2.387-.092c-1.22.261-.909-.303-1.098-.597z" style="fill:currentColor;fill-opacity:1;stroke:none;stroke-linejoin:miter" transform="translate(-.545 -8.5)"/><path d="M172.487 75.311c-.193-1.178-.693-2.104-1.194-3.03 0 0-.873-2.431-1.106-3.912-.232-1.482-.182-4.902-.182-4.902s-.068-2.769.449-4.209c.517-1.441 2.606-4.146 2.606-4.146 1.156-1.262 2.8-1.195 4.487-1.01 1.542.155 2.906.541 3.82 1.515.726.945 1.438 1.896 1.811 3.01l.289 1.305c.772-.292.601.483.143.643-1.505 1.139-3.024 2.425-4.487 3.076-2.754 1.148-2.974 2.143-3.676 3.167-.309.713-1.141.531-1.146-.091.632-1.424 2.883-5.13 4.165-5.315 1.282-.184 2.148-1.157 1.946-2.214.286-.967-.371-1.622-1.385-2.158-1.36-.669-2.225-.498-3.007-.184-1.706.329-1.984 1.745-2.435 3.03 0 0-.919 3.155-.907 4.683.012 1.528.907 4.315.907 4.315l.955 3.581c.262.578.298 1.265 1.146 1.561l.668 1.194c.081.336.427.77-.382.78l-2.387-.092c-1.22.261-.909-.303-1.098-.597z" class="stroke-shape" style="fill:none;stroke:none;stroke-width:1;stroke-linejoin:miter;stroke-opacity:1" transform="translate(-.545 -8.5)"/><path d="M53.445 57.437c.576-.855 1.44-3.226 4.679-4.256 1.804-.24 3.538-.31 5.02.225 1.302.723 1.995 1.53 1.998 2.432.115 1.855-.425 2.107-1.414 1.262-1.17-2.008-3.07-2.497-5.799-1.262-1.485.581-1.479 2.296-1.949 3.649.612 1.994 1.819 2.45 3.07 2.793l5.556 1.756c2.47 1.154 3.92 2.769 3.216 5.36l-.731 2.252s-.624 1.397-.536 2.117c.052.424 1.04.996.609 1.149-.544.194-1.901 0-1.901 0l-2.607.045c-.502-.01-.531-.198-.195-.923.504-.946.762-1.816 1.803-2.928.035-2.105-.26-3.965-1.9-4.82l-5.848-2.657c-1.356-.563-2.846-.992-3.265-2.477-.171-.451-.342-.9-.195-1.937 0 0-.187-.924.389-1.78z" style="fill:currentColor;fill-opacity:1;stroke:none;stroke-linejoin:miter" transform="translate(-.545 -8.5)"/><path d="M53.445 57.437c.576-.855 1.44-3.226 4.679-4.256 1.804-.24 3.538-.31 5.02.225 1.302.723 1.995 1.53 1.998 2.432.115 1.855-.425 2.107-1.414 1.262-1.17-2.008-3.07-2.497-5.799-1.262-1.485.581-1.479 2.296-1.949 3.649.612 1.994 1.819 2.45 3.07 2.793l5.556 1.756c2.47 1.154 3.92 2.769 3.216 5.36l-.731 2.252s-.624 1.397-.536 2.117c.052.424 1.04.996.609 1.149-.544.194-1.901 0-1.901 0l-2.607.045c-.502-.01-.531-.198-.195-.923.504-.946.762-1.816 1.803-2.928.035-2.105-.26-3.965-1.9-4.82l-5.848-2.657c-1.356-.563-2.846-.992-3.265-2.477-.171-.451-.342-.9-.195-1.937 0 0-.187-.924.389-1.78z" class="stroke-shape" style="fill:none;stroke:none;stroke-width:1;stroke-linejoin:miter;stroke-opacity:1" transform="translate(-.545 -8.5)"/><path d="M54 68.662c-.006-.52.317-.631.706-.662.508.048 1.015.104 1.412.636l.363 1.483c.222 1.226.594 2.267.984 3.285l1.348 1.986c.455.61-.016.532-.385.53l-2.439.08c-.513.008-.948-.109-.898-1.007-.641-2.282-.901-4.328-1.091-6.331Z" style="fill:currentColor;fill-opacity:1;stroke:none;stroke-linejoin:miter" transform="translate(-.545 -8.5)"/><path d="M54 68.662c-.006-.52.317-.631.706-.662.508.048 1.015.104 1.412.636l.363 1.483c.222 1.226.594 2.267.984 3.285l1.348 1.986c.455.61-.016.532-.385.53l-2.439.08c-.513.008-.948-.109-.898-1.007-.641-2.282-.901-4.328-1.091-6.331Z" class="stroke-shape" style="fill:none;stroke:none;stroke-width:1;stroke-linejoin:miter;stroke-opacity:1" transform="translate(-.545 -8.5)"/><path d="M74.06 57.168c.53-1.088.786-2.222 2.68-3.076L79.858 54l1.998.735c1.392.807 1.914 1.796 2.144 2.846l-.146 2.893c-.448.143-.587 1.158-1.754-.735.191-1.327-.024-2.478-1.511-3.076-1.859-.53-2.976-.184-3.8.505-.792.769-1.683 1.445-1.852 2.801l-.146 4.086.341 4.546c.518.814-.139 1.637.232 2.338.502.947 1.322 1.619 1.814 2.437l2.144 1.836c.423.643.09.829-.633.781l-2.485-.138c-1.082.254-1.153-.444-1.511-.872-1.544-.622-1.709-2.398-2.144-3.949l-.438-3.306c.464-1.751.091-2.397-.049-3.351-.155-.998-.078-1.971.926-2.847.017-1.225.157-2.532 1.072-4.362z" style="fill:currentColor;fill-opacity:1;stroke:none;stroke-linejoin:miter" transform="translate(-.545 -8.5)"/><path d="M74.06 57.168c.53-1.088.786-2.222 2.68-3.076L79.858 54l1.998.735c1.392.807 1.914 1.796 2.144 2.846l-.146 2.893c-.448.143-.587 1.158-1.754-.735.191-1.327-.024-2.478-1.511-3.076-1.859-.53-2.976-.184-3.8.505-.792.769-1.683 1.445-1.852 2.801l-.146 4.086.341 4.546c.518.814-.139 1.637.232 2.338.502.947 1.322 1.619 1.814 2.437l2.144 1.836c.423.643.09.829-.633.781l-2.485-.138c-1.082.254-1.153-.444-1.511-.872-1.544-.622-1.709-2.398-2.144-3.949l-.438-3.306c.464-1.751.091-2.397-.049-3.351-.155-.998-.078-1.971.926-2.847.017-1.225.157-2.532 1.072-4.362z" class="stroke-shape" style="fill:none;stroke:none;stroke-width:1;stroke-linejoin:miter;stroke-opacity:1" transform="translate(-.545 -8.5)"/><path d="M87.875 37.583c-.323-2.214 1.469-1.831 1.812-.526.285 1.304.402 2.666.188 4.144l.25 5.789c.019 1.586.182 3.264-.188 4.605l.188 2.861c2.703-1.009 5.347-1.748 7.313.691.824 1.501 1.34 3.061 1.25 4.736L99 64.225l-.312 5.46c.015 1.495.011 2.931.187 4.934.098.598.003 1.044-.563 1.118l-2 .066c-.884-.266-.777-.793-.687-1.316l.437-4.21c.183-1.956.351-3.929.125-6.315l.063-2.237c-.555-.991-.757-2.231-.563-3.749-.87-.852-1.729-1.726-3.25-1.382-1.603.585-1.664 1.35-1.812 2.105l-.938 6.447c.063.772.126 1.859.188 3.158.18 1.205.59 2.209.312 3.815l-.25 3.157c.046.466-.087.697-.374.724l-1.813-.066c-.529-.071-.783-.368-.562-1.052.471-1.82.44-3.839.25-5.921-.414-1.575-.433-3.317-.438-5.065l.5-5.723-.062-6.183.25-4.342c-.323-1.217-.383-2.711-.376-4.276l.25-3.815z" style="fill:currentColor;fill-opacity:1;stroke:none;stroke-linejoin:miter" transform="translate(-.545 -8.5)"/><path d="M87.875 37.583c-.323-2.214 1.469-1.831 1.812-.526.285 1.304.402 2.666.188 4.144l.25 5.789c.019 1.586.182 3.264-.188 4.605l.188 2.861c2.703-1.009 5.347-1.748 7.313.691.824 1.501 1.34 3.061 1.25 4.736L99 64.225l-.312 5.46c.015 1.495.011 2.931.187 4.934.098.598.003 1.044-.563 1.118l-2 .066c-.884-.266-.777-.793-.687-1.316l.437-4.21c.183-1.956.351-3.929.125-6.315l.063-2.237c-.555-.991-.757-2.231-.563-3.749-.87-.852-1.729-1.726-3.25-1.382-1.603.585-1.664 1.35-1.812 2.105l-.938 6.447c.063.772.126 1.859.188 3.158.18 1.205.59 2.209.312 3.815l-.25 3.157c.046.466-.087.697-.374.724l-1.813-.066c-.529-.071-.783-.368-.562-1.052.471-1.82.44-3.839.25-5.921-.414-1.575-.433-3.317-.438-5.065l.5-5.723-.062-6.183.25-4.342c-.323-1.217-.383-2.711-.376-4.276l.25-3.815z" class="stroke-shape" style="fill:none;stroke:none;stroke-width:1;stroke-linejoin:miter;stroke-opacity:1" transform="translate(-.545 -8.5)"/><path d="M104.421 53.686c.005-.416.266-.618.687-.686h1.529c.254.082.45.239.375.751l-.125.915c.982-.453 2.102-.852 3.745-1.045 1.617-.195 3.048 0 3.839 1.535 1.023 2.246 1.259 4.328 1.467 6.404l.031 5.782.031 3.463-.031 3.235-.031 1.241c-.107.245-.051.604-.625.523l-1.997-.098c-.7-.035-.654-.677-.624-1.307.152-1.381.253-2.441.562-4.802.166-1.942.075-4.064 0-6.175l-.531-4.149c-.008-.918-.516-1.706-1.186-2.451-.885-.603-1.584-.231-2.31 0-.694.282-1.115.612-1.31.981 0 0-.715 3.781-.905 5.096-.191 1.315-.319 1.718-.313 2.777.006 1.059.437 3.529.437 3.529.231.936.48 1.867.063 2.973l-.219 2.842-.156.98-2.247-.163c-.438-.105-.722-.312-.499-.85l.187-3.3c.339-1.235.216-2.568.156-3.887 0 0-.171-2.384-.187-4.051-.017-1.668.156-5.946.156-5.946z" style="fill:currentColor;fill-opacity:1;stroke:none;stroke-linejoin:miter" transform="translate(-.545 -8.5)"/><path d="M104.421 53.686c.005-.416.266-.618.687-.686h1.529c.254.082.45.239.375.751l-.125.915c.982-.453 2.102-.852 3.745-1.045 1.617-.195 3.048 0 3.839 1.535 1.023 2.246 1.259 4.328 1.467 6.404l.031 5.782.031 3.463-.031 3.235-.031 1.241c-.107.245-.051.604-.625.523l-1.997-.098c-.7-.035-.654-.677-.624-1.307.152-1.381.253-2.441.562-4.802.166-1.942.075-4.064 0-6.175l-.531-4.149c-.008-.918-.516-1.706-1.186-2.451-.885-.603-1.584-.231-2.31 0-.694.282-1.115.612-1.31.981 0 0-.715 3.781-.905 5.096-.191 1.315-.319 1.718-.313 2.777.006 1.059.437 3.529.437 3.529.231.936.48 1.867.063 2.973l-.219 2.842-.156.98-2.247-.163c-.438-.105-.722-.312-.499-.85l.187-3.3c.339-1.235.216-2.568.156-3.887 0 0-.171-2.384-.187-4.051-.017-1.668.156-5.946.156-5.946z" class="stroke-shape" style="fill:none;stroke:none;stroke-width:1;stroke-linejoin:miter;stroke-opacity:1" transform="translate(-.545 -8.5)"/><path d="M188.421 53.686c.005-.416.266-.618.687-.686h1.529c.254.082.45.239.375.751l-.125.915c.982-.453 2.102-.852 3.745-1.045 1.617-.195 3.048 0 3.839 1.535 1.023 2.246 1.259 4.328 1.467 6.404l.031 5.782.031 3.463-.031 3.235-.031 1.241c-.107.245-.051.604-.625.523l-1.997-.098c-.7-.035-.654-.677-.624-1.307.152-1.381.253-2.441.562-4.802.166-1.942.075-4.064 0-6.175l-.531-4.149c-.008-.918-.516-1.706-1.186-2.451-.885-.603-1.584-.231-2.31 0-.694.282-1.115.612-1.31.981 0 0-.715 3.781-.905 5.096-.191 1.315-.319 1.718-.313 2.777.006 1.059.437 3.529.437 3.529.231.936.48 1.867.063 2.973l-.219 2.842-.156.98-2.247-.163c-.438-.105-.722-.312-.499-.85l.187-3.3c.339-1.235.216-2.568.156-3.887 0 0-.171-2.384-.187-4.051-.017-1.668.156-5.946.156-5.946z" style="fill:currentColor;fill-opacity:1;stroke:none;stroke-linejoin:miter" transform="translate(-.545 -8.5)"/><path d="M188.421 53.686c.005-.416.266-.618.687-.686h1.529c.254.082.45.239.375.751l-.125.915c.982-.453 2.102-.852 3.745-1.045 1.617-.195 3.048 0 3.839 1.535 1.023 2.246 1.259 4.328 1.467 6.404l.031 5.782.031 3.463-.031 3.235-.031 1.241c-.107.245-.051.604-.625.523l-1.997-.098c-.7-.035-.654-.677-.624-1.307.152-1.381.253-2.441.562-4.802.166-1.942.075-4.064 0-6.175l-.531-4.149c-.008-.918-.516-1.706-1.186-2.451-.885-.603-1.584-.231-2.31 0-.694.282-1.115.612-1.31.981 0 0-.715 3.781-.905 5.096-.191 1.315-.319 1.718-.313 2.777.006 1.059.437 3.529.437 3.529.231.936.48 1.867.063 2.973l-.219 2.842-.156.98-2.247-.163c-.438-.105-.722-.312-.499-.85l.187-3.3c.339-1.235.216-2.568.156-3.887 0 0-.171-2.384-.187-4.051-.017-1.668.156-5.946.156-5.946z" class="stroke-shape" style="fill:none;stroke:none;stroke-width:1;stroke-linejoin:miter;stroke-opacity:1" transform="translate(-.545 -8.5)"/><path d="M139.06 57.168c.53-1.088.786-2.222 2.68-3.076l3.118-.092 1.998.735c1.392.807 1.914 1.796 2.144 2.846l-.146 2.893c-.448.143-.587 1.158-1.754-.735.191-1.327-.024-2.478-1.511-3.076-1.859-.53-2.976-.184-3.8.505-.792.769-1.683 1.445-1.852 2.801l-.146 4.086.341 4.546c.518.814-.139 1.637.232 2.338.502.947 1.322 1.619 1.814 2.437l2.144 1.836c.423.643.09.829-.633.781l-2.485-.138c-1.082.254-1.153-.444-1.511-.872-1.544-.622-1.709-2.398-2.144-3.949l-.438-3.306c.464-1.751.091-2.397-.049-3.351-.155-.998-.078-1.971.926-2.847.017-1.225.157-2.532 1.072-4.362z" style="fill:currentColor;fill-opacity:1;stroke:none;stroke-linejoin:miter" transform="translate(-.545 -8.5)"/><path d="M139.06 57.168c.53-1.088.786-2.222 2.68-3.076l3.118-.092 1.998.735c1.392.807 1.914 1.796 2.144 2.846l-.146 2.893c-.448.143-.587 1.158-1.754-.735.191-1.327-.024-2.478-1.511-3.076-1.859-.53-2.976-.184-3.8.505-.792.769-1.683 1.445-1.852 2.801l-.146 4.086.341 4.546c.518.814-.139 1.637.232 2.338.502.947 1.322 1.619 1.814 2.437l2.144 1.836c.423.643.09.829-.633.781l-2.485-.138c-1.082.254-1.153-.444-1.511-.872-1.544-.622-1.709-2.398-2.144-3.949l-.438-3.306c.464-1.751.091-2.397-.049-3.351-.155-.998-.078-1.971.926-2.847.017-1.225.157-2.532 1.072-4.362z" class="stroke-shape" style="fill:none;stroke:none;stroke-width:1;stroke-linejoin:miter;stroke-opacity:1" transform="translate(-.545 -8.5)"/><path d="M147.099 75.931c-.4-.008.527-1.504.72-1.8.193-.296.389-.924.389-.924-.108-1.394 1.368-3.985 1.771-.362l-.172 2.363c.3.508.269.8-.223.792z" style="fill:currentColor;fill-opacity:1;stroke:none;stroke-linejoin:miter" transform="translate(-.545 -8.5)"/><path d="M147.099 75.931c-.4-.008.527-1.504.72-1.8.193-.296.389-.924.389-.924-.108-1.394 1.368-3.985 1.771-.362l-.172 2.363c.3.508.269.8-.223.792z" class="stroke-shape" style="fill:none;stroke:none;stroke-width:1;stroke-linejoin:miter;stroke-opacity:1" transform="translate(-.545 -8.5)"/><path d="M180.099 75.931c-.4-.008.527-1.504.72-1.8.193-.296.389-.924.389-.924-.108-1.394 1.368-3.985 1.771-.362l-.172 2.363c.3.508.269.8-.223.792z" style="opacity:1;fill:currentColor;fill-opacity:1;stroke:none;stroke-linejoin:miter" transform="translate(-.545 -8.5)"/><path d="M180.099 75.931c-.4-.008.527-1.504.72-1.8.193-.296.389-.924.389-.924-.108-1.394 1.368-3.985 1.771-.362l-.172 2.363c.3.508.269.8-.223.792z" class="stroke-shape" style="opacity:1;fill:none;stroke:none;stroke-width:1;stroke-linejoin:miter;stroke-opacity:1" transform="translate(-.545 -8.5)"/><path d="M130.099 75.931c-.4-.008.527-1.504.72-1.8.193-.296.389-.924.389-.924-.108-1.394 1.368-3.985 1.771-.362l-.172 2.363c.3.508.269.8-.223.792z" style="fill:currentColor;fill-opacity:1;stroke:none;stroke-linejoin:miter" transform="translate(-.545 -8.5)"/><path d="M130.099 75.931c-.4-.008.527-1.504.72-1.8.193-.296.389-.924.389-.924-.108-1.394 1.368-3.985 1.771-.362l-.172 2.363c.3.508.269.8-.223.792z" class="stroke-shape" style="fill:none;stroke:none;stroke-width:1;stroke-linejoin:miter;stroke-opacity:1" transform="translate(-.545 -8.5)"/><path d="M82.758 71.001c-.446.016-.765.346-.974.657-.31.47-.48 1.014-.474 1.555a3.007 3.007 0 0 1-.507.86c-.297.401-.613.805-.775 1.265-.075.21-.003.488.253.571.201.066.426.026.637.044.799.014 1.598.045 2.397.047.301-.005.626-.168.674-.445.048-.225-.065-.446-.191-.638.059-.67.127-1.341.179-2.011-.081-.522-.169-1.066-.49-1.523-.157-.217-.423-.394-.729-.382z" style="opacity:1;fill:currentColor;fill-opacity:1;stroke:none;stroke-linejoin:miter" transform="translate(-.545 -8.5)"/><path d="M82.758 71.001c-.446.016-.765.346-.974.657-.31.47-.48 1.014-.474 1.555a3.007 3.007 0 0 1-.507.86c-.297.401-.613.805-.775 1.265-.075.21-.003.488.253.571.201.066.426.026.637.044.799.014 1.598.045 2.397.047.301-.005.626-.168.674-.445.048-.225-.065-.446-.191-.638.059-.67.127-1.341.179-2.011-.081-.522-.169-1.066-.49-1.523-.157-.217-.423-.394-.729-.382z" class="stroke-shape" style="opacity:1;fill:none;stroke:none;stroke-width:1;stroke-linejoin:miter;stroke-opacity:1" transform="translate(-.545 -8.5)"/><path d="M153 28.999c.038-.359.177-.685.767-.862l7.047-.069c.926-.229 1.076.156 1.081.655L162 30c-.194.484-.43.92-1.081.862-2.035-.477-4.399-.082-6.698.138-.522-.121-1.086-.206-.977-.862z" style="fill:currentColor;fill-opacity:1;stroke:none;stroke-linejoin:miter" transform="translate(-.545 -8.5)"/><path d="M153 28.999c.038-.359.177-.685.767-.862l7.047-.069c.926-.229 1.076.156 1.081.655L162 30c-.194.484-.43.92-1.081.862-2.035-.477-4.399-.082-6.698.138-.522-.121-1.086-.206-.977-.862z" class="stroke-shape" style="fill:none;stroke:none;stroke-width:1;stroke-linejoin:miter;stroke-opacity:1" transform="translate(-.545 -8.5)"/><path d="M155.566 36.001c-.461.017-.836.475-.671 1.582l-.32 1.974-.255 3.815c-.009 1.565.053 3.059.383 4.276l-.256 4.342.065 6.183-.512 5.723c.005 1.748.025 3.49.447 5.065.195 2.082.227 4.1-.255 5.921-.226.684.034.98.575 1.052l1.854.066c.294-.027.43-.258.383-.724l.256-3.157c.284-1.607-.136-2.61-.319-3.816a102.816 102.816 0 0 0-.192-3.157l.959-6.446c.151-.755.214-1.521 1.854-2.106 1.555-.344 2.433.53 3.324 1.382-.199 1.518.638 2.377.064 3.239-.626.941-2.174 2.221-2.174 2.221-.345.741-.74.329-1.854 2.039-.139.27-.507 1.445-.121 1.697.583.381 1.308-.508 1.688-1.088 1.464-2.233 4.048-3.333 5.178-4.26.502-.412.287-1.94.287-1.94.093-1.676-.435-3.236-1.278-4.737-2.01-2.439-4.716-1.7-7.48-.69l-.192-2.862c.375-1.33.215-2.989.193-4.563l.479-.963 1.726-3.388 1.215-2.598c.472-1.078-.285-1.407-.832-.362 0 0-1.185 1.79-1.678 2.442a44.327 44.327 0 0 1-1.065 1.341l-.101-2.303c.219-1.478.099-2.84-.192-4.144-.176-.652-.722-1.074-1.183-1.056z" style="fill:currentColor;fill-opacity:1;stroke:none;stroke-linejoin:miter" transform="translate(-.545 -8.5)"/><path d="M155.566 36.001c-.461.017-.836.475-.671 1.582l-.32 1.974-.255 3.815c-.009 1.565.053 3.059.383 4.276l-.256 4.342.065 6.183-.512 5.723c.005 1.748.025 3.49.447 5.065.195 2.082.227 4.1-.255 5.921-.226.684.034.98.575 1.052l1.854.066c.294-.027.43-.258.383-.724l.256-3.157c.284-1.607-.136-2.61-.319-3.816a102.816 102.816 0 0 0-.192-3.157l.959-6.446c.151-.755.214-1.521 1.854-2.106 1.555-.344 2.433.53 3.324 1.382-.199 1.518.638 2.377.064 3.239-.626.941-2.174 2.221-2.174 2.221-.345.741-.74.329-1.854 2.039-.139.27-.507 1.445-.121 1.697.583.381 1.308-.508 1.688-1.088 1.464-2.233 4.048-3.333 5.178-4.26.502-.412.287-1.94.287-1.94.093-1.676-.435-3.236-1.278-4.737-2.01-2.439-4.716-1.7-7.48-.69l-.192-2.862c.375-1.33.215-2.989.193-4.563l.479-.963 1.726-3.388 1.215-2.598c.472-1.078-.285-1.407-.832-.362 0 0-1.185 1.79-1.678 2.442a44.327 44.327 0 0 1-1.065 1.341l-.101-2.303c.219-1.478.099-2.84-.192-4.144-.176-.652-.722-1.074-1.183-1.056z" class="stroke-shape" style="fill:none;stroke:none;stroke-width:1;stroke-linejoin:miter;stroke-opacity:1" transform="translate(-.545 -8.5)"/><path d="M161.319 67.873c-.59-.359-.337-1.163.554-.765l2.673 1.356c.666.129 1.277 2.022 1.109 1.902-.066-.048.178 3.388.178 3.388.389 1.302.012 1.172-.257 1.246l-2.138-.066c-.346-.091-.589-.297-.515-.852-.011-1.05.007-2.087.515-2.908.178-1.091-.186-1.962-1.01-2.645z" style="fill:currentColor;fill-opacity:1;stroke:none;stroke-linejoin:miter" transform="translate(-.545 -8.5)"/><path d="M161.319 67.873c-.59-.359-.337-1.163.554-.765l2.673 1.356c.666.129 1.277 2.022 1.109 1.902-.066-.048.178 3.388.178 3.388.389 1.302.012 1.172-.257 1.246l-2.138-.066c-.346-.091-.589-.297-.515-.852-.011-1.05.007-2.087.515-2.908.178-1.091-.186-1.962-1.01-2.645z" class="stroke-shape" style="fill:none;stroke:none;stroke-width:1;stroke-linejoin:miter;stroke-opacity:1" transform="translate(-.545 -8.5)"/></g></svg>