<svg viewBox="0 0 250 110" xmlns="http://www.w3.org/2000/svg" xml:space="preserve" style="fill-rule:evenodd;clip-rule:evenodd;stroke-linejoin:round;stroke-miterlimit:2"><path d="M30.7 111.5c-2.6-1.9-2.1-5.2 1.1-6.7 1.9-.9 3.1-2.7 4.1-5.7 1.3-4 1.2-5.1-.6-11-1.2-3.6-4.2-11.2-6.8-16.9-3.2-7-4.9-12.1-5.2-16.1-1.2-12.6 6.1-23.1 16-23.1 6 0 9.4 6.4 4 7.5-6.3 1.4-9.2 5-10 12.7-.5 5.4-.3 6.3 6.1 19.8 8 17 9.3 23.9 5.7 31.2-3.3 6.7-10.8 11-14.4 8.3ZM145.4 109.6c-1.8-1.4-1.9-2.7-1.6-33.1.3-28.3.1-31.9-1.3-33.5-.9-1-1.5-2.7-1.3-3.7.3-1.5 1.3-1.8 6.1-1.6 12.8.4 24.7 9.9 24.7 19.8 0 7.4-9.9 22.3-16.8 25.2l-3.3 1.4.3 11.2c.2 14.4-1.5 18.1-6.8 14.3Zm15-45.6c4.7-8.6 2.5-14.6-5.8-16.6l-2.9-.7.6 4.8c.4 2.6.7 8.6.7 13.3v8.5l2.4-2.2c1.3-1.2 3.5-4.4 5-7.1ZM72.4 102.8l-2.7-3.3.8-22.5c.4-12.4.8-24.5.9-27l.1-4.5-7 .3c-7.7.2-12-1-13.6-4-1.5-2.9-.3-3.6 8.1-4.8 4.1-.6 9-1.6 10.9-2.2 1.9-.6 6.8-1 10.9-.9 4.2.1 10.6-.5 14.6-1.5 6.9-1.6 7.4-1.6 9.9.1 3.2 2.1 3.3 2.9.8 5.4C104.4 39.6 90 43 84.4 43c-1.4 0-2.4.8-2.8 2.3-.4 1.2-.9 14.4-1.2 29.2-.3 14.9-.7 28-1 29.3-.6 3.2-3.7 2.8-7-1Z" style="fill:#fff;fill-rule:nonzero" transform="translate(-27.806 -26.088) scale(1.20006)"/><path d="M114.1 103.9c-12.6-1.5-15.3-4.6-15.7-18.1-.1-5-.7-9.5-1.3-10.1-1.6-1.6-1.3-3 .9-5 1.5-1.2 2-2.9 2-6.5 0-3.9-.4-4.9-2.2-5.7-2.7-1.2-3.6-5.6-1.5-7.3 2.2-1.9 18.8-7.9 25.3-9.3 7.6-1.5 12.4-.1 12.4 3.6 0 2.4-2.8 3.6-18.2 8-4.3 1.2-5.8 2.1-5.8 3.4 0 1-.3 4-.7 6.6l-.6 4.8 8.6-.7c7.9-.6 8.8-.5 10.7 1.4 2.1 2.1 2.1 2.3.4 4.1-1.3 1.4-3.2 1.9-7.3 2-9.5.2-11.5 1-12.8 4.9-.7 1.9-1.2 5.6-1.2 8.2-.1 4 .3 5 2.4 6.4 3.3 2.2 14.4 3 17.5 1.4 2.1-1.1 2.6-1 4.2 1 2.2 2.7 2.3 4.4.2 6.4-1.7 1.8-5.5 1.9-17.3.5Z" style="fill:#fff;fill-rule:nonzero" transform="translate(-27.806 -26.088) scale(1.20006)"/><g><path d="M177 111.2c-1.9-.9-4.3-3.2-5.4-5.1-1.9-3.3-1.9-3.4 0-8.9C173.5 91.6 184.4 74 186 74c.4 0 1.3-1.3 1.8-3 .9-2.3.7-3.3-.7-5.2-3.5-4.5-5.5-17.7-3.5-22.7l1.4-3.4 8.9.7c5.8.4 9.2.3 9.6-.4 2.9-4.8 16.9 6 16.7 12.9 0 1.9.8 3.6 2.4 5 1.3 1.1 2.4 2.5 2.4 3 0 1.6-2.4 6.5-3.6 7.6-.7.6-1.7 2.6-2.3 4.5-1.3 4-8.4 12-10.6 12-.8 0-1.5.6-1.5 1.4 0 .8-.6 1.6-1.3 1.9-.8.3-2.1 2-3.1 3.9-6 12.1-9 15.9-14.8 18.9-4.6 2.3-6.4 2.4-10.8.1ZM227.6 55.7c-2.2-1.6-1.8-5 .6-5.5s4.4 3.6 2.6 5.4c-1.2 1.2-1.7 1.2-3.2.1ZM224.1 46.6c-.9-1.1-.8-1.8.4-3 2.1-2 2.9-2 4.6 0 1.1 1.4 1 1.8-.6 3-2.4 1.7-3 1.7-4.4 0ZM217.2 40.8c-1.9-1.9-1.4-5.6.9-6.8 1.6-.9 2.6-.8 4.5.5 2.8 1.8 3.1 3.7.8 5.9-1.8 1.9-4.5 2.1-6.2.4ZM183.6 35.9c-1.8-1.5-2.6-3-2.6-5.3 0-7.1 9.3-10.3 14.6-5.1 2.4 2.4 2.4 2.6.9 6.2-.9 2.1-2.3 4.4-3.2 5.1-2.5 1.8-6.7 1.5-9.7-.9ZM207.2 35.2c-3.4-.5-4.7-3.8-2.7-6.8 1.8-2.8 4.1-3.1 7.3-.8 4.6 3.2 1.4 8.6-4.6 7.6Z" style="fill:#fff;fill-rule:nonzero" transform="translate(-27.806 -26.088) scale(1.20006)"/></g></svg>