<svg xmlns="http://www.w3.org/2000/svg" xmlns:xlink="http://www.w3.org/1999/xlink" width="48" height="48" fill="none" style="-webkit-print-color-adjust:exact" viewBox="-0.545 -0.5 48 48"><defs><linearGradient id="a"><stop offset="0" style="stop-color:#7b5747;stop-opacity:1"/><stop offset="1" style="stop-color:#2c1d1c;stop-opacity:1"/></linearGradient><linearGradient xlink:href="#a" id="b" x1="25.956" x2="25.956" y1="23.854" y2="75.665" gradientUnits="userSpaceOnUse"/></defs><g style="fill:url(#b);fill-opacity:1" transform="matrix(.84807 0 0 .84807 3.11 -19.364)"><path d="M17.001 25.968c.035-1.012 1.068-2.214 3.092-1.924.802.115 1.343.752.432 1.123-1.003.408-1.326.938-1.915 1.469-.689.621-1.648.478-1.609-.668zm30.888.096c-.36-.744-1.643-1.438-3.295-.835-.655.24-.915.816-.008.916.998.111 1.45.442 2.131.723.797.328 1.579.039 1.172-.804zM8.197 63.18c-1.473-5.704 5.578-11.79 12-8.007 1.18.696 2.127 1.399 2.879 2.385-.343-2.082-2.197-3.152-2.465-7.162-.206-3.075.64-8.03 4.619-10.974l-2.648-3.794s-2.184.791-3.876-1.88c-2.964-4.678 4.12-11.195 8.07-5.573 1.904 2.709 0 5.439 0 5.439l1.61 4.18c1.393-.471 3.019-.755 4.912-.79 1.85-.034 3.426.152 4.77.513l1.169-3.292s-1.868-1.501-.659-4.478c2.118-5.216 11.377-2.531 9.05 4.082-1.122 3.186-4.401 3.005-4.401 3.005l-1.586 2.394c3.462 2.654 4.105 7.214 4.344 11.076.365 5.928-5.954 12.31-2.556 18.803 2.065 3.946 2.128 6.889-1.278 6.604-10.423-.872-21.271 1.451-35.322-.55-1.874-.267-3.973 1.321-5.659.459-.628-.321-1.406-1.173-1.102-1.811 2.163-4.536 6.287-5.327 10.073-6.713.131-.048.264-.09.398-.128-1.059-.962-1.939-2.229-2.342-3.788ZM23.5 28a2.5 2.5 0 0 0 0 5 2.5 2.5 0 0 0 0-5Zm20 0a2.5 2.5 0 0 0 0 5 2.5 2.5 0 0 0 0-5ZM28.179 44.013c-.147.038-.218.142-.157.233.586.879 2.487 1.564 4.649 1.722 2.162.158 4.631-.244 6.274-1.643.045-.038.063-.086.051-.133-.012-.046-.053-.088-.115-.116-.129-.058-.31-.04-.403.04-1.514 1.289-3.738 1.644-5.739 1.498-2-.146-3.732-.827-4.184-1.504-.06-.091-.229-.134-.376-.097z" style="fill:url(#b);fill-opacity:1"/><g style="fill:url(#b);fill-opacity:1"><path d="M17.001 25.968c.035-1.012 1.068-2.214 3.092-1.924.802.115 1.343.752.432 1.123-1.003.408-1.326.938-1.915 1.469-.689.621-1.648.478-1.609-.668zm30.888.096c-.36-.744-1.643-1.438-3.295-.835-.655.24-.915.816-.008.916.998.111 1.45.442 2.131.723.797.328 1.579.039 1.172-.804zM8.197 63.18c-1.473-5.704 5.578-11.79 12-8.007 1.18.696 2.127 1.399 2.879 2.385-.343-2.082-2.197-3.152-2.465-7.162-.206-3.075.64-8.03 4.619-10.974l-2.648-3.794s-2.184.791-3.876-1.88c-2.964-4.678 4.12-11.195 8.07-5.573 1.904 2.709 0 5.439 0 5.439l1.61 4.18c1.393-.471 3.019-.755 4.912-.79 1.85-.034 3.426.152 4.77.513l1.169-3.292s-1.868-1.501-.659-4.478c2.118-5.216 11.377-2.531 9.05 4.082-1.122 3.186-4.401 3.005-4.401 3.005l-1.586 2.394c3.462 2.654 4.105 7.214 4.344 11.076.365 5.928-5.954 12.31-2.556 18.803 2.065 3.946 2.128 6.889-1.278 6.604-10.423-.872-21.271 1.451-35.322-.55-1.874-.267-3.973 1.321-5.659.459-.628-.321-1.406-1.173-1.102-1.811 2.163-4.536 6.287-5.327 10.073-6.713.131-.048.264-.09.398-.128-1.059-.962-1.939-2.229-2.342-3.788ZM23.5 28a2.5 2.5 0 0 0 0 5 2.5 2.5 0 0 0 0-5Zm20 0a2.5 2.5 0 0 0 0 5 2.5 2.5 0 0 0 0-5ZM28.179 44.013c-.147.038-.218.142-.157.233.586.879 2.487 1.564 4.649 1.722 2.162.158 4.631-.244 6.274-1.643.045-.038.063-.086.051-.133-.012-.046-.053-.088-.115-.116-.129-.058-.31-.04-.403.04-1.514 1.289-3.738 1.644-5.739 1.498-2-.146-3.732-.827-4.184-1.504-.06-.091-.229-.134-.376-.097z" class="stroke-shape" style="fill:url(#b);stroke-width:1.09051;fill-opacity:1"/></g></g></svg>